# xmcd
#
# Track frame offsets: 
#        150
#        16034
#        29440
#        40957
#        56438
#        66672
#        82994
#        98961
#        116897
#        129151
#        143047
#        159240
#
# Disc length: 2313 seconds
#
# Revision: 0
# Processed by: cddbd v1.5.2PL0 Copyright (c) Steve Scherf et al.
# Submitted via: ExactAudioCopy v0.99pb5
#
DISCID=9909070c
DTITLE=Barbe-Q-Barbies - All Over You
DYEAR=2010
DGENRE=Rock
TTITLE0=Spell
TTITLE1=New Direction
TTITLE2=Wig Wam Bam
TTITLE3=Twisted Little Sister
TTITLE4=Aggression
TTITLE5=My Salvation
TTITLE6=Rockstar
TTITLE7=Don't Look At Me
TTITLE8=Dedication For A Friend
TTITLE9=Escort
TTITLE10=All Over You
TTITLE11=Rock'n'Roll
EXTD=
EXTT0=
EXTT1=
EXTT2=
EXTT3=
EXTT4=
EXTT5=
EXTT6=
EXTT7=
EXTT8=
EXTT9=
EXTT10=
EXTT11=
PLAYORDER=
